{
  "accessors": [
    {
      "bufferView": 3,
      "componentType": 5126,
      "count": 4249,
      "max": [
        0.14175009727478027,
        1.8076171875,
        0.13350343704223633
      ],
      "min": [
        -0.13754674792289734,
        1.51171875,
        -0.1630663275718689
      ],
      "type": "VEC3"
    },
    {
      "bufferView": 3,
      "byteOffset": 50988,
      "componentType": 5126,
      "count": 4249,
      "max": [
        0.9999502897262573,
        0.9993975162506104,
        0.9995246529579163
      ],
      "min": [
        -0.9994997382164001,
        -0.999753475189209,
        -0.9998165965080261
      ],
      "type": "VEC3"
    },
    {
      "bufferView": 2,
      "componentType": 5126,
      "count": 4249,
      "max": [
        0.99658203125,
        0.9969348907470703
      ],
      "min": [
        0.0007319450378417969,
        0.00048828125
      ],
      "type": "VEC2"
    },
    {
      "bufferView": 1,
      "componentType": 5125,
      "count": 21657,
      "type": "SCALAR"
    },
    {
      "bufferView": 3,
      "byteOffset": 101976,
      "componentType": 5126,
      "count": 14423,
      "max": [
        0.5413110852241516,
        1.6025022268295288,
        0.14961670339107513
      ],
      "min": [
        -0.5417388081550598,
        -0.00821356475353241,
        -0.2386835664510727
      ],
      "type": "VEC3"
    },
    {
      "bufferView": 3,
      "byteOffset": 275052,
      "componentType": 5126,
      "count": 14423,
      "max": [
        0.9999772310256958,
        0.9999538064002991,
        0.9999205470085144
      ],
      "min": [
        -0.9999908208847046,
        -0.9999977350234985,
        -0.9999851584434509
      ],
      "type": "VEC3"
    },
    {
      "bufferView": 2,
      "byteOffset": 33992,
      "componentType": 5126,
      "count": 14423,
      "max": [
        0.99853515625,
        0.9976863861083984
      ],
      "min": [
        0.0021209716796875,
        0.001953125
      ],
      "type": "VEC2"
    },
    {
      "bufferView": 1,
      "byteOffset": 86628,
      "componentType": 5125,
      "count": 65103,
      "type": "SCALAR"
    },
    {
      "bufferView": 3,
      "byteOffset": 448128,
      "componentType": 5126,
      "count": 3411,
      "max": [
        0.620842695236206,
        1.1821194887161255,
        0.1757248342037201
      ],
      "min": [
        -0.6245319247245789,
        0.9858404397964478,
        -0.019448019564151764
      ],
      "type": "VEC3"
    },
    {
      "bufferView": 3,
      "byteOffset": 489060,
      "componentType": 5126,
      "count": 3411,
      "max": [
        0.9998955726623535,
        0.9934548139572144,
        0.9999017119407654
      ],
      "min": [
        -0.9998058676719666,
        -0.9992477893829346,
        -0.9984515905380249
      ],
      "type": "VEC3"
    },
    {
      "bufferView": 2,
      "byteOffset": 149376,
      "componentType": 5126,
      "count": 3411,
      "max": [
        0.994140625,
        0.9873733520507813
      ],
      "min": [
        0.0033512115478515625,
        0.0078125
      ],
      "type": "VEC2"
    },
    {
      "bufferView": 1,
      "byteOffset": 347040,
      "componentType": 5125,
      "count": 17346,
      "type": "SCALAR"
    },
    {
      "bufferView": 5,
      "componentType": 5126,
      "count": 68,
      "max": [
        101.53522491455078,
        69.32207489013672,
        78.4695816040039,
        0.0,
        101.53453826904297,
        101.53521728515625,
        100.0711441040039,
        0.0,
        101.28545379638672,
        101.42799377441406,
        101.53521728515625,
        0.0,
        100.03833770751953,
        124.80615234375,
        148.28781127929688,
        1.0
      ],
      "min": [
        -13.30841064453125,
        -96.26837921142578,
        -101.53522491455078,
        0.0,
        -101.52070617675781,
        -101.38803100585938,
        -100.07112121582031,
        0.0,
        -101.28848266601563,
        -101.53453826904297,
        -96.68366241455078,
        0.0,
        -158.66305541992188,
        -125.01766204833984,
        -148.28773498535156,
        1.0
      ],
      "type": "MAT4"
    },
    {
      "bufferView": 0,
      "componentType": 5123,
      "count": 4249,
      "type": "VEC4"
    },
    {
      "bufferView": 4,
      "componentType": 5126,
      "count": 4249,
      "max": [
        1.0,
        0.4413597285747528,
        0.16312122344970703,
        0.0
      ],
      "min": [
        0.4696592092514038,
        0.0,
        0.0,
        0.0
      ],
      "type": "VEC4"
    },
    {
      "bufferView": 0,
      "byteOffset": 33992,
      "componentType": 5123,
      "count": 14423,
      "type": "VEC4"
    },
    {
      "bufferView": 4,
      "byteOffset": 67984,
      "componentType": 5126,
      "count": 14423,
      "max": [
        1.0,
        0.49992549419403076,
        0.3179728388786316,
        0.17749890685081482
      ],
      "min": [
        0.336818128824234,
        0.0,
        0.0,
        0.0
      ],
      "type": "VEC4"
    },
    {
      "bufferView": 0,
      "byteOffset": 149376,
      "componentType": 5123,
      "count": 3411,
      "type": "VEC4"
    },
    {
      "bufferView": 4,
      "byteOffset": 298752,
      "componentType": 5126,
      "count": 3411,
      "max": [
        1.0,
        0.4986763596534729,
        0.3095109462738037,
        0.06580488383769989
      ],
      "min": [
        0.3661820888519287,
        0.0,
        0.0,
        0.0
      ],
      "type": "VEC4"
    }
  ],
  "asset": {
    "extras": {
      "author": "Grand Dog Studio (https://sketchfab.com/GrandDogStudio)",
      "license": "CC-BY-NC-4.0 (http://creativecommons.org/licenses/by-nc/4.0/)",
      "source": "https://sketchfab.com/3d-models/ue4-storm-trooper-rigged-game-ready-077bbe07d52f44c18ef9f30422d50ee5",
      "title": "[UE4] Storm Trooper (Rigged + Game Ready)"
    },
    "generator": "Sketchfab-15.37.0",
    "version": "2.0"
  },
  "bufferViews": [
    {
      "buffer": 0,
      "byteLength": 176664,
      "byteStride": 8,
      "name": "shortBufferViews",
      "target": 34962
    },
    {
      "buffer": 0,
      "byteLength": 416424,
      "byteOffset": 176664,
      "name": "floatBufferViews",
      "target": 34963
    },
    {
      "buffer": 0,
      "byteLength": 176664,
      "byteOffset": 593088,
      "byteStride": 8,
      "name": "floatBufferViews",
      "target": 34962
    },
    {
      "buffer": 0,
      "byteLength": 529992,
      "byteOffset": 769752,
      "byteStride": 12,
      "name": "floatBufferViews",
      "target": 34962
    },
    {
      "buffer": 0,
      "byteLength": 353328,
      "byteOffset": 1299744,
      "byteStride": 16,
      "name": "floatBufferViews",
      "target": 34962
    },
    {
      "buffer": 0,
      "byteLength": 4352,
      "byteOffset": 1653072,
      "name": "floatBufferViews"
    }
  ],
  "buffers": [
    {
      "byteLength": 1657424,
      "uri": "scene.bin"
    }
  ],
  "extensionsUsed": [
    "KHR_materials_specular"
  ],
  "images": [
    {
      "uri": "textures/Helmet_baseColor.png"
    },
    {
      "uri": "textures/Body_baseColor.png"
    },
    {
      "uri": "textures/Body_metallicRoughness.png"
    },
    {
      "uri": "textures/Hands_baseColor.png"
    },
    {
      "uri": "textures/Hands_metallicRoughness.png"
    }
  ],
  "materials": [
    {
      "doubleSided": true,
      "extensions": {
        "KHR_materials_specular": {
          "specularColorFactor": [
            1.0,
            1.0,
            1.0
          ],
          "specularFactor": 0.404
        }
      },
      "name": "Helmet",
      "pbrMetallicRoughness": {
        "baseColorTexture": {
          "index": 0
        },
        "metallicFactor": 0.0,
        "roughnessFactor": 0.0
      }
    },
    {
      "doubleSided": true,
      "extensions": {
        "KHR_materials_specular": {
          "specularColorFactor": [
            1.0,
            1.0,
            1.0
          ],
          "specularFactor": 0.40386139529360326
        }
      },
      "name": "Body",
      "occlusionTexture": {
        "index": 2
      },
      "pbrMetallicRoughness": {
        "baseColorTexture": {
          "index": 1
        },
        "metallicFactor": 0.0,
        "metallicRoughnessTexture": {
          "index": 2
        },
        "roughnessFactor": 0.0
      }
    },
    {
      "doubleSided": true,
      "extensions": {
        "KHR_materials_specular": {
          "specularColorFactor": [
            1.0,
            1.0,
            1.0
          ],
          "specularFactor": 0.02807929880528694
        }
      },
      "name": "Hands",
      "occlusionTexture": {
        "index": 4
      },
      "pbrMetallicRoughness": {
        "baseColorTexture": {
          "index": 3
        },
        "metallicFactor": 0.0,
        "metallicRoughnessTexture": {
          "index": 4
        },
        "roughnessFactor": 0.0
      }
    }
  ],
  "meshes": [
    {
      "name": "helmet_Helmet_0",
      "primitives": [
        {
          "attributes": {
            "JOINTS_0": 13,
            "NORMAL": 1,
            "POSITION": 0,
            "TEXCOORD_0": 2,
            "WEIGHTS_0": 14
          },
          "indices": 3,
          "material": 0,
          "mode": 4
        }
      ]
    },
    {
      "name": "body_Body_0",
      "primitives": [
        {
          "attributes": {
            "JOINTS_0": 15,
            "NORMAL": 5,
            "POSITION": 4,
            "TEXCOORD_0": 6,
            "WEIGHTS_0": 16
          },
          "indices": 7,
          "material": 1,
          "mode": 4
        }
      ]
    },
    {
      "name": "hands_Hands_0",
      "primitives": [
        {
          "attributes": {
            "JOINTS_0": 17,
            "NORMAL": 9,
            "POSITION": 8,
            "TEXCOORD_0": 10,
            "WEIGHTS_0": 18
          },
          "indices": 11,
          "material": 2,
          "mode": 4
        }
      ]
    }
  ],
  "nodes": [
    {
      "children": [
        1
      ],
      "matrix": [
        1.0,
        0.0,
        0.0,
        0.0,
        0.0,
        2.220446049250313e-16,
        -1.0,
        0.0,
        0.0,
        1.0,
        2.220446049250313e-16,
        0.0,
        0.0,
        0.0,
        0.0,
        1.0
      ],
      "name": "Sketchfab_model"
    },
    {
      "children": [
        2
      ],
      "matrix": [
        1.0,
        0.0,
        0.0,
        0.0,
        0.0,
        0.0,
        1.0,
        0.0,
        0.0,
        -1.0,
        0.0,
        0.0,
        0.0,
        0.0,
        0.0,
        1.0
      ],
      "name": "8b26c629b3cb4adbb011e53e36bef7c7.fbx"
    },
    {
      "children": [
        3
      ],
      "name": "RootNode"
    },
    {
      "children": [
        4
      ],
      "matrix": [
        1.0,
        0.0,
        0.0,
        0.0,
        0.0,
        -1.6292067939183141e-07,
        -0.9999999999999868,
        0.0,
        0.0,
        0.9999999999999868,
        -1.6292067939183141e-07,
        0.0,
        0.0,
        0.0,
        0.0,
        1.0
      ],
      "name": "root"
    },
    {
      "children": [
        5,
        7,
        9,
        11,
        6,
        8,
        10
      ],
      "name": "Object_4"
    },
    {
      "children": [
        12,
        72,
        75
      ],
      "name": "_rootJoint"
    },
    {
      "matrix": [
        101.53522175971692,
        -1.840273013863818e-14,
        -9.505751966273034e-13,
        0.0,
        1.8402997365135575e-14,
        101.53521682296132,
        2.863924027364118e-05,
        0.0,
        9.505751452187066e-13,
        -2.8639240273645443e-05,
        101.53521682297642,
        0.0,
        1.3173739443067557e-13,
        4.050543793709949e-06,
        -2.897199484763746e-07,
        1.0
      ],
      "name": "Object_6"
    },
    {
      "mesh": 0,
      "name": "Object_7",
      "skin": 0
    },
    {
      "matrix": [
        101.53520650092567,
        2.572087596501799e-07,
        -1.0326204575914256e-06,
        0.0,
        -2.5720843680084234e-07,
        101.53519393471355,
        2.861499993542146e-05,
        0.0,
        1.0326204022797354e-06,
        -2.8614999932809772e-05,
        101.53519393472826,
        0.0,
        1.3173739443067557e-13,
        4.050543793709949e-06,
        -2.897199484763746e-07,
        1.0
      ],
      "name": "Object_8"
    },
    {
      "mesh": 1,
      "name": "Object_9",
      "skin": 0
    },
    {
      "matrix": [
        101.53520650092545,
        1.2860437697161366e-06,
        -1.8609829413718779e-06,
        0.0,
        -1.2860433755420367e-06,
        101.5352168229613,
        2.863924076861126e-05,
        0.0,
        1.8609832136312325e-06,
        -2.8639236441084808e-05,
        101.53520156407107,
        0.0,
        1.3173739443067557e-13,
        4.050543793709949e-06,
        -2.897199484763746e-07,
        1.0
      ],
      "name": "Object_10"
    },
    {
      "mesh": 2,
      "name": "Object_11",
      "skin": 0
    },
    {
      "children": [
        13,
        60,
        66
      ],
      "name": "pelvis_01",
      "rotation": [
        0.0012952829711139202,
        -0.7071056365966797,
        -0.0012950300006195903,
        0.7071055769920349
      ],
      "scale": [
        1.0,
        1.0,
        1.0000001192092896
      ],
      "translation": [
        1.3536841578012896e-28,
        3.6670191287994385,
        96.75060272216797
      ]
    },
    {
      "children": [
        14
      ],
      "name": "spine_01_02",
      "rotation": [
        -6.198433322168739e-09,
        -2.3632969359255185e-08,
        -0.062388546764850616,
        0.9980519413948059
      ],
      "scale": [
        1.0,
        0.9999999403953552,
        1.0
      ],
      "translation": [
        13.262450218200684,
        -0.1004256010055542,
        2.916988250944996e-07
      ]
    },
    {
      "children": [
        15
      ],
      "name": "spine_02_03",
      "rotation": [
        1.3846582547216713e-08,
        4.732946123908732e-08,
        0.12241963297128677,
        0.9924784302711487
      ],
      "scale": [
        1.0,
        0.9999999403953552,
        1.0
      ],
      "translation": [
        12.813425064086914,
        2.269585609436035,
        -1.4263927141655586e-06
      ]
    },
    {
      "children": [
        16,
        37,
        58
      ],
      "name": "spine_03_04",
      "rotation": [
        1.9702706133273296e-09,
        9.762644026523049e-09,
        0.024252599105238914,
        0.999705970287323
      ],
      "scale": [
        0.9999999403953552,
        1.0,
        1.0
      ],
      "translation": [
        14.223820686340332,
        0.32456445693969727,
        -4.521280061453581e-08
      ]
    },
    {
      "children": [
        17
      ],
      "name": "clavicle_l_05",
      "rotation": [
        0.2089177966117859,
        0.7294166684150696,
        0.12304425984621048,
        0.6396598815917969
      ],
      "scale": [
        1.0,
        0.9999999403953552,
        1.0
      ],
      "translation": [
        11.882087707519531,
        -5.570382595062256,
        -3.403503179550171
      ]
    },
    {
      "children": [
        18,
        36
      ],
      "name": "upperarm_l_06",
      "rotation": [
        0.1129959300160408,
        0.3306296169757843,
        -0.16141904890537262,
        0.9229625463485718
      ],
      "scale": [
        1.0000001192092896,
        0.9999999403953552,
        0.9999999403953552
      ],
      "translation": [
        15.78486442565918,
        -2.4097971618175507e-06,
        -4.112720489501953e-06
      ]
    },
    {
      "children": [
        19,
        35
      ],
      "name": "lowerarm_l_07",
      "rotation": [
        -0.05040745437145233,
        -0.09587443619966507,
        -0.31574153900146484,
        0.9426422715187073
      ],
      "scale": [
        1.0,
        0.9999998807907104,
        1.0
      ],
      "translation": [
        23.789493560791016,
        0.866626501083374,
        0.02404877543449402
      ]
    },
    {
      "children": [
        20,
        23,
        26,
        29,
        32
      ],
      "name": "hand_l_08",
      "rotation": [
        -0.6286140084266663,
        0.0655093640089035,
        -0.03343584015965462,
        0.7742318511009216
      ],
      "scale": [
        0.9999999403953552,
        0.9999998807907104,
        0.9999999403953552
      ],
      "translation": [
        29.021177291870117,
        -0.2123126983642578,
        0.16287004947662354
      ]
    },
    {
      "children": [
        21
      ],
      "name": "index_01_l_09",
      "rotation": [
        0.11409009993076324,
        -0.005857607815414667,
        0.1944131851196289,
        0.9742446541786194
      ],
      "scale": [
        1.000000238418579,
        1.0,
        1.0
      ],
      "translation": [
        10.997457504272461,
        2.0890541076660156,
        -3.146151542663574
      ]
    },
    {
      "children": [
        22
      ],
      "name": "index_02_l_010",
      "rotation": [
        0.00645727664232254,
        -0.012651479803025723,
        0.15194621682167053,
        0.9882867932319641
      ],
      "scale": [
        1.0000001192092896,
        1.0,
        1.0000001192092896
      ],
      "translation": [
        3.3332505226135254,
        -0.0694117546081543,
        -0.40848541259765625
      ]
    },
    {
      "name": "index_03_l_011",
      "rotation": [
        0.014813815243542194,
        0.016217883676290512,
        -0.10536503791809082,
        0.9941909909248352
      ],
      "scale": [
        1.0,
        0.9999998807907104,
        0.9999999403953552
      ],
      "translation": [
        2.8592047691345215,
        1.1444091796875e-05,
        1.049041748046875e-05
      ]
    },
    {
      "children": [
        24
      ],
      "name": "middle_01_l_012",
      "rotation": [
        0.014401939697563648,
        -0.05604155361652374,
        0.17182675004005432,
        0.9834265112876892
      ],
      "translation": [
        10.719623565673828,
        1.8384946584701538,
        -0.4986557960510254
      ]
    },
    {
      "children": [
        25
      ],
      "name": "middle_02_l_013",
      "rotation": [
        -0.03099101595580578,
        0.007074212189763784,
        0.1409565806388855,
        0.9895052909851074
      ],
      "scale": [
        1.0000001192092896,
        1.0,
        0.9999999403953552
      ],
      "translation": [
        3.678846836090088,
        -0.2571842670440674,
        0.010361671447753906
      ]
    },
    {
      "name": "middle_03_l_014",
      "rotation": [
        0.01779322698712349,
        -0.046595729887485504,
        -0.15566802024841309,
        0.9865494966506958
      ],
      "scale": [
        1.0,
        0.9999998807907104,
        1.0
      ],
      "translation": [
        3.202336311340332,
        -8.106231689453125e-06,
        3.552713678800501e-15
      ]
    },
    {
      "children": [
        27
      ],
      "name": "pinky_01_l_015",
      "rotation": [
        -0.13337397575378418,
        -0.18978369235992432,
        0.12159436196088791,
        0.9650949835777283
      ],
      "scale": [
        1.0000001192092896,
        0.9999998807907104,
        1.0000001192092896
      ],
      "translation": [
        8.62771987915039,
        1.8534842729568481,
        4.100840091705322
      ]
    },
    {
      "children": [
        28
      ],
      "name": "pinky_02_l_016",
      "rotation": [
        0.0025029375683516264,
        -0.009651078842580318,
        0.08519720286130905,
        0.9963142275810242
      ],
      "scale": [
        0.9999999403953552,
        1.0,
        0.9999998807907104
      ],
      "translation": [
        3.266357898712158,
        0.35656100511550903,
        0.4965500831604004
      ]
    },
    {
      "name": "pinky_03_l_017",
      "rotation": [
        -0.001651379163376987,
        0.04573560133576393,
        0.01095394603908062,
        0.9988922476768494
      ],
      "scale": [
        1.0,
        0.9999998807907104,
        0.9999998807907104
      ],
      "translation": [
        2.5768332481384277,
        0.38409847021102905,
        0.13303422927856445
      ]
    },
    {
      "children": [
        30
      ],
      "name": "ring_01_l_018",
      "rotation": [
        -0.10693636536598206,
        -0.11410035938024521,
        0.16284184157848358,
        0.9741808176040649
      ],
      "scale": [
        0.9999999403953552,
        1.0,
        1.0
      ],
      "translation": [
        10.36587905883789,
        1.6458542346954346,
        2.0284767150878906
      ]
    },
    {
      "children": [
        31
      ],
      "name": "ring_02_l_019",
      "rotation": [
        -0.007668502628803253,
        -0.019972780719399452,
        0.1336420327425003,
        0.990798830986023
      ],
      "scale": [
        1.0,
        0.9999999403953552,
        1.0
      ],
      "translation": [
        3.3055062294006348,
        0.544758141040802,
        0.36293983459472656
      ]
    },
    {
      "name": "ring_03_l_020",
      "rotation": [
        0.010458391159772873,
        0.033540815114974976,
        -0.12185165286064148,
        0.9919263124465942
      ],
      "translation": [
        3.2974987030029297,
        -1.7881393432617188e-06,
        -5.7220458984375e-06
      ]
    },
    {
      "children": [
        33
      ],
      "name": "thumb_01_l_021",
      "rotation": [
        0.6236105561256409,
        0.32957014441490173,
        -0.07128828763961792,
        0.7052739858627319
      ],
      "scale": [
        1.000000238418579,
        1.0000001192092896,
        1.0
      ],
      "translation": [
        2.3931732177734375,
        2.786384105682373,
        -4.056535720825195
      ]
    },
    {
      "children": [
        34
      ],
      "name": "thumb_02_l_022",
      "rotation": [
        0.011371215805411339,
        0.09417592734098434,
        0.14041674137115479,
        0.9855378866195679
      ],
      "translation": [
        3.4121077060699463,
        0.12752771377563477,
        -0.46926331520080566
      ]
    },
    {
      "name": "thumb_03_l_023",
      "rotation": [
        0.012398826889693737,
        0.005525371991097927,
        -0.12230784446001053,
        0.9923993945121765
      ],
      "translation": [
        3.882049083709717,
        -0.18387842178344727,
        0.5182762145996094
      ]
    },
    {
      "name": "lowerarm_twist_01_l_024",
      "rotation": [
        -2.2351741790771484e-08,
        -2.3096799850463867e-07,
        -2.5704503059387207e-07,
        1.0
      ],
      "translation": [
        13.29648208618164,
        -0.7213208675384521,
        -0.15104025602340698
      ]
    },
    {
      "name": "upperarm_twist_01_l_025",
      "rotation": [
        4.6566133171666024e-09,
        -4.2782630771398544e-08,
        -3.958120942115784e-08,
        1.0
      ],
      "scale": [
        1.0,
        1.0,
        0.9999999403953552
      ],
      "translation": [
        0.3912433981895447,
        -1.1920928955078125e-07,
        -1.6361474990844727e-05
      ]
    },
    {
      "children": [
        38
      ],
      "name": "clavicle_r_026",
      "rotation": [
        0.7294168472290039,
        -0.20891809463500977,
        -0.6396597027778625,
        0.12304425984621048
      ],
      "scale": [
        0.9999998807907104,
        1.0,
        1.0
      ],
      "translation": [
        11.882194519042969,
        -5.570396423339844,
        3.403526544570923
      ]
    },
    {
      "children": [
        39,
        57
      ],
      "name": "upperarm_r_027",
      "rotation": [
        0.11299563944339752,
        0.33062979578971863,
        -0.16141878068447113,
        0.9229625463485718
      ],
      "scale": [
        1.0,
        0.9999999403953552,
        0.9999999403953552
      ],
      "translation": [
        -15.78480052947998,
        -4.5890919864177704e-07,
        -1.4483928680419922e-05
      ]
    },
    {
      "children": [
        40,
        56
      ],
      "name": "lowerarm_r_028",
      "rotation": [
        -0.05392853543162346,
        -0.09469497203826904,
        -0.31609806418418884,
        0.9424471259117126
      ],
      "translation": [
        -23.796594619750977,
        -0.9902091026306152,
        -0.027528464794158936
      ]
    },
    {
      "children": [
        41,
        44,
        47,
        50,
        53
      ],
      "name": "hand_r_029",
      "rotation": [
        -0.6207697987556458,
        0.06010271608829498,
        -0.047002341598272324,
        0.7802712917327881
      ],
      "translation": [
        -28.6405029296875,
        0.5052366256713867,
        0.3583735227584839
      ]
    },
    {
      "children": [
        42
      ],
      "name": "index_01_r_030",
      "rotation": [
        0.10610762983560562,
        0.02134590968489647,
        0.1917928010225296,
        0.97544926404953
      ],
      "scale": [
        0.9999999403953552,
        0.9999999403953552,
        0.9999999403953552
      ],
      "translation": [
        -11.53159236907959,
        -1.5423368215560913,
        3.0100202560424805
      ]
    },
    {
      "children": [
        43
      ],
      "name": "index_02_r_031",
      "rotation": [
        0.003597123548388481,
        -0.04835698753595352,
        0.15804317593574524,
        0.9862408638000488
      ],
      "scale": [
        1.0000001192092896,
        1.0000001192092896,
        1.0000001192092896
      ],
      "translation": [
        -3.2676219940185547,
        0.0001087188720703125,
        -9.34600830078125e-05
      ]
    },
    {
      "name": "index_03_r_032",
      "rotation": [
        0.014733395539224148,
        0.01535767037421465,
        -0.10521597415208817,
        0.9942217469215393
      ],
      "scale": [
        1.0,
        0.9999999403953552,
        1.0
      ],
      "translation": [
        -2.8604536056518555,
        0.0001163482666015625,
        5.3290705182007514e-15
      ]
    },
    {
      "children": [
        45
      ],
      "name": "middle_01_r_033",
      "rotation": [
        0.01858493871986866,
        -0.03759458288550377,
        0.12836171686649323,
        0.9908403158187866
      ],
      "scale": [
        1.0,
        1.0000001192092896,
        0.9999999403953552
      ],
      "translation": [
        -11.339639663696289,
        -1.510401725769043,
        0.015836715698242188
      ]
    },
    {
      "children": [
        46
      ],
      "name": "middle_02_r_034",
      "rotation": [
        -0.042398206889629364,
        -0.012732801958918571,
        0.19766142964363098,
        0.9792702794075012
      ],
      "scale": [
        0.9999998807907104,
        0.9999998807907104,
        0.9999998807907104
      ],
      "translation": [
        -3.5183897018432617,
        -0.00013899803161621094,
        4.76837158203125e-06
      ]
    },
    {
      "name": "middle_03_r_035",
      "rotation": [
        0.01698586717247963,
        -0.04748944193124771,
        -0.15389585494995117,
        0.9867990016937256
      ],
      "scale": [
        1.0,
        0.9999999403953552,
        0.9999998211860657
      ],
      "translation": [
        -3.241852283477783,
        5.7220458984375e-06,
        -4.76837158203125e-06
      ]
    },
    {
      "children": [
        48
      ],
      "name": "pinky_01_r_036",
      "rotation": [
        -0.16276532411575317,
        -0.1908448040485382,
        0.21774286031723022,
        0.9432252049446106
      ],
      "scale": [
        0.9999999403953552,
        0.9999999403953552,
        1.0
      ],
      "translation": [
        -9.882838249206543,
        -2.0483036041259766,
        -4.969052314758301
      ]
    },
    {
      "children": [
        49
      ],
      "name": "pinky_02_r_037",
      "rotation": [
        0.0064385137520730495,
        -0.03200983256101608,
        0.06086167320609093,
        0.9976120591163635
      ],
      "scale": [
        1.0,
        0.9999999403953552,
        1.0
      ],
      "translation": [
        -3.3336565494537354,
        -7.140636444091797e-05,
        -4.76837158203125e-06
      ]
    },
    {
      "name": "pinky_03_r_038",
      "rotation": [
        0.012535893358290195,
        0.08678159862756729,
        -0.07337477803230286,
        0.9934424757957458
      ],
      "scale": [
        1.0000001192092896,
        0.9999999403953552,
        1.0
      ],
      "translation": [
        -2.0097317695617676,
        0.0003307759761810303,
        -4.00543212890625e-05
      ]
    },
    {
      "children": [
        51
      ],
      "name": "ring_01_r_039",
      "rotation": [
        -0.10225413739681244,
        -0.1309126615524292,
        0.1611335277557373,
        0.9728524684906006
      ],
      "scale": [
        1.0,
        1.0000001192092896,
        1.0
      ],
      "translation": [
        -10.766639709472656,
        -1.746600866317749,
        -2.402533531188965
      ]
    },
    {
      "children": [
        52
      ],
      "name": "ring_02_r_040",
      "rotation": [
        -0.010492236353456974,
        0.005354529712349176,
        0.1340108960866928,
        0.9909098744392395
      ],
      "scale": [
        1.0,
        0.9999998807907104,
        0.9999999403953552
      ],
      "translation": [
        -3.3192930221557617,
        0.00010259449481964111,
        -2.47955322265625e-05
      ]
    },
    {
      "name": "ring_03_r_041",
      "rotation": [
        0.015063196420669556,
        0.033232469111680984,
        -0.12598659098148346,
        0.9913607239723206
      ],
      "scale": [
        1.0,
        0.9999999403953552,
        1.0
      ],
      "translation": [
        -3.1641125679016113,
        2.384185791015625e-07,
        0.0
      ]
    },
    {
      "children": [
        54
      ],
      "name": "thumb_01_r_042",
      "rotation": [
        0.6289100646972656,
        0.39465588331222534,
        -0.005025182384997606,
        0.6698459386825562
      ],
      "scale": [
        0.9999995231628418,
        0.9999998211860657,
        0.9999999403953552
      ],
      "translation": [
        -3.043436050415039,
        -2.1820621490478516,
        3.6232495307922363
      ]
    },
    {
      "children": [
        55
      ],
      "name": "thumb_02_r_043",
      "rotation": [
        0.020316338166594505,
        -0.11479215323925018,
        0.09330419450998306,
        0.9887893199920654
      ],
      "scale": [
        1.0,
        0.9999999403953552,
        0.9999998807907104
      ],
      "translation": [
        -3.7655820846557617,
        0.00011754035949707031,
        7.43865966796875e-05
      ]
    },
    {
      "name": "thumb_03_r_044",
      "rotation": [
        -0.014719061553478241,
        0.050854578614234924,
        -0.08917225897312164,
        0.9946082234382629
      ],
      "scale": [
        1.0,
        0.9999999403953552,
        1.0000001192092896
      ],
      "translation": [
        -3.8000974655151367,
        3.337860107421875e-06,
        -5.245208740234375e-06
      ]
    },
    {
      "name": "lowerarm_twist_01_r_045",
      "rotation": [
        -0.11711254715919495,
        -5.626658250434957e-09,
        1.2191084408641473e-07,
        0.9931187629699707
      ],
      "scale": [
        1.0000001192092896,
        1.0,
        1.0
      ],
      "translation": [
        -13.366230010986328,
        0.8228733539581299,
        0.1787090301513672
      ]
    },
    {
      "name": "upperarm_twist_01_r_046",
      "rotation": [
        -0.1732344925403595,
        -1.1051933057615315e-07,
        -2.666648413196526e-07,
        0.9848806262016296
      ],
      "scale": [
        1.0,
        1.0000001192092896,
        1.0000001192092896
      ],
      "translation": [
        -0.39122194051742554,
        -1.537799835205078e-05,
        -9.98377799987793e-06
      ]
    },
    {
      "children": [
        59
      ],
      "name": "neck_01_047",
      "rotation": [
        -2.550396231981722e-07,
        -2.93360535863485e-08,
        -0.20371074974536896,
        0.9790311455726624
      ],
      "scale": [
        0.9999999403953552,
        0.9999999403953552,
        1.0
      ],
      "translation": [
        14.611637115478516,
        -2.6772098541259766,
        8.651254574942868e-07
      ]
    },
    {
      "name": "head_048",
      "rotation": [
        2.4997811465254927e-07,
        1.8127556344893492e-08,
        0.1335419863462448,
        0.9910431504249573
      ],
      "scale": [
        1.0,
        1.0,
        0.9999998807907104
      ],
      "translation": [
        6.921708106994629,
        -0.22599387168884277,
        -2.7745451802729804e-07
      ]
    },
    {
      "children": [
        61,
        65
      ],
      "name": "thigh_l_049",
      "rotation": [
        0.07369088381528854,
        -0.06655480712652206,
        -0.009322869591414928,
        0.9950141906738281
      ],
      "scale": [
        0.9999998807907104,
        1.0,
        1.0
      ],
      "translation": [
        -3.5897178649902344,
        -3.1501526832580566,
        -9.005807876586914
      ]
    },
    {
      "children": [
        62,
        63
      ],
      "name": "calf_l_050",
      "rotation": [
        -0.04918082803487778,
        0.022444697096943855,
        -0.06252485513687134,
        0.9965782165527344
      ],
      "scale": [
        1.0,
        0.9999999403953552,
        1.0
      ],
      "translation": [
        -41.99327850341797,
        -0.008421987295150757,
        0.09149184823036194
      ]
    },
    {
      "name": "calf_twist_01_l_051",
      "rotation": [
        0.00278286449611187,
        -0.0019753018859773874,
        -0.0077886576764285564,
        0.9999639391899109
      ],
      "scale": [
        0.9999999403953552,
        1.0000001192092896,
        1.0
      ],
      "translation": [
        -20.027257919311523,
        -1.1920928955078125e-06,
        -4.32133674621582e-06
      ]
    },
    {
      "children": [
        64
      ],
      "name": "foot_l_052",
      "rotation": [
        -0.005569481756538153,
        0.03267040103673935,
        0.07184883207082748,
        0.9968647956848145
      ],
      "scale": [
        1.0000001192092896,
        1.0,
        1.0
      ],
      "translation": [
        -39.31425857543945,
        3.5762786865234375e-07,
        -3.0100345611572266e-06
      ]
    },
    {
      "name": "ball_l_053",
      "rotation": [
        -2.071389726410189e-09,
        0.0004037979815620929,
        -0.7237474918365479,
        0.6900647878646851
      ],
      "scale": [
        0.9999999403953552,
        0.9999999403953552,
        0.9999998807907104
      ],
      "translation": [
        -12.58736801147461,
        -15.083979606628418,
        0.03864935413002968
      ]
    },
    {
      "name": "thigh_twist_01_l_054",
      "rotation": [
        -0.0474449023604393,
        0.004299649503082037,
        0.00012679649807978421,
        0.9988645911216736
      ],
      "scale": [
        1.0,
        1.0,
        1.0000001192092896
      ],
      "translation": [
        -20.729557037353516,
        0.008421212434768677,
        -0.09148938953876495
      ]
    },
    {
      "children": [
        67,
        71
      ],
      "name": "thigh_r_00",
      "rotation": [
        0.06213894113898277,
        0.0737057700753212,
        0.9953052401542664,
        0.008584200404584408
      ],
      "scale": [
        0.9999999403953552,
        1.0,
        1.0000028610229492
      ],
      "translation": [
        -3.5895347595214844,
        -3.1501500606536865,
        9.005803108215332
      ]
    },
    {
      "children": [
        68,
        69
      ],
      "name": "calf_r_055",
      "rotation": [
        -0.04890528693795204,
        0.018175778910517693,
        -0.06312958151102066,
        0.9966407418251038
      ],
      "scale": [
        0.9999999403953552,
        1.0,
        1.0
      ],
      "translation": [
        41.992698669433594,
        -0.02484196424484253,
        0.2698628902435303
      ]
    },
    {
      "name": "calf_twist_01_r_056",
      "rotation": [
        0.0027862628921866417,
        -0.0019643816631287336,
        -0.007744711823761463,
        0.9999642968177795
      ],
      "scale": [
        0.9999999403953552,
        1.0,
        0.9999998211860657
      ],
      "translation": [
        20.141576766967773,
        -2.6226043701171875e-06,
        -2.8014183044433594e-06
      ]
    },
    {
      "children": [
        70
      ],
      "name": "foot_r_057",
      "rotation": [
        -0.005572915077209473,
        0.0324847586452961,
        0.07144897431135178,
        0.9968996644020081
      ],
      "scale": [
        0.9999998211860657,
        0.9999998211860657,
        0.9999998211860657
      ],
      "translation": [
        39.5385627746582,
        -3.4570693969726563e-06,
        -1.5974044799804688e-05
      ]
    },
    {
      "name": "ball_r_058",
      "rotation": [
        -4.2340248910477385e-05,
        0.00042570134974084795,
        -0.7233097553253174,
        0.6905235648155212
      ],
      "scale": [
        0.9999999403953552,
        0.9999999403953552,
        1.0
      ],
      "translation": [
        12.634920120239258,
        15.085762023925781,
        -0.03910565748810768
      ]
    },
    {
      "name": "thigh_twist_01_r_059",
      "rotation": [
        -0.04744528606534004,
        2.110059722326696e-05,
        -0.0004730121581815183,
        0.9988738298416138
      ],
      "scale": [
        0.9999998807907104,
        0.9999999403953552,
        1.0
      ],
      "translation": [
        20.72786521911621,
        -0.02484053373336792,
        0.2698632478713989
      ]
    },
    {
      "children": [
        73,
        74
      ],
      "name": "ik_foot_root_060",
      "rotation": [
        -1.3234889800848443e-23,
        -0.0,
        0.0,
        1.0
      ]
    },
    {
      "name": "ik_foot_l_061",
      "rotation": [
        0.020529843866825104,
        -0.7122328281402588,
        0.011723957024514675,
        0.7015450596809387
      ],
      "translation": [
        17.076271057128906,
        8.072127342224121,
        13.465730667114258
      ]
    },
    {
      "name": "ik_foot_r_062",
      "rotation": [
        -0.7015450596809387,
        0.011722007766366005,
        0.7122328877449036,
        0.02052793838083744
      ],
      "scale": [
        1.000000238418579,
        1.0,
        1.0
      ],
      "translation": [
        -17.0762882232666,
        8.072148323059082,
        13.46557331085205
      ]
    },
    {
      "children": [
        76
      ],
      "name": "ik_hand_root_063",
      "rotation": [
        -1.3234889800848443e-23,
        -0.0,
        0.0,
        1.0
      ]
    },
    {
      "children": [
        77,
        78
      ],
      "name": "ik_hand_gun_064",
      "rotation": [
        0.6188496351242065,
        -0.06954120844602585,
        0.38913604617118835,
        0.6787947416305542
      ],
      "scale": [
        0.9999998807907104,
        0.9999999403953552,
        1.0
      ],
      "translation": [
        -56.646087646484375,
        0.33541345596313477,
        111.67965698242188
      ]
    },
    {
      "name": "ik_hand_l_065",
      "rotation": [
        0.687474250793457,
        -0.6143579483032227,
        0.38722535967826843,
        -1.671080980258921e-07
      ],
      "scale": [
        0.9999996423721313,
        0.9999999403953552,
        1.0
      ],
      "translation": [
        77.88545989990234,
        -69.60189056396484,
        43.86948013305664
      ]
    },
    {
      "name": "ik_hand_r_066",
      "rotation": [
        8.754432201385498e-08,
        3.725290298461914e-08,
        -2.8870999813079834e-08,
        1.0
      ],
      "translation": [
        1.0818243026733398e-05,
        1.963973045349121e-05,
        -9.268522262573242e-06
      ]
    }
  ],
  "samplers": [
    {
      "magFilter": 9729,
      "minFilter": 9987,
      "wrapS": 10497,
      "wrapT": 10497
    }
  ],
  "scene": 0,
  "scenes": [
    {
      "name": "Sketchfab_Scene",
      "nodes": [
        0
      ]
    }
  ],
  "skins": [
    {
      "inverseBindMatrices": 12,
      "joints": [
        5,
        12,
        13,
        14,
        15,
        16,
        17,
        18,
        19,
        20,
        21,
        22,
        23,
        24,
        25,
        26,
        27,
        28,
        29,
        30,
        31,
        32,
        33,
        34,
        35,
        36,
        37,
        38,
        39,
        40,
        41,
        42,
        43,
        44,
        45,
        46,
        47,
        48,
        49,
        50,
        51,
        52,
        53,
        54,
        55,
        56,
        57,
        58,
        59,
        60,
        61,
        62,
        63,
        64,
        65,
        66,
        67,
        68,
        69,
        70,
        71,
        72,
        73,
        74,
        75,
        76,
        77,
        78
      ],
      "skeleton": 5
    }
  ],
  "textures": [
    {
      "sampler": 0,
      "source": 0
    },
    {
      "sampler": 0,
      "source": 1
    },
    {
      "sampler": 0,
      "source": 2
    },
    {
      "sampler": 0,
      "source": 3
    },
    {
      "sampler": 0,
      "source": 4
    }
  ]
}
