{
  "accessors": [
    {
      "bufferView": 2,
      "componentType": 5126,
      "count": 120,
      "max": [
        5.8407440185546875,
        -10.67341423034668,
        21.161575317382813
      ],
      "min": [
        -5.8407440185546875,
        -13.669118881225586,
        16.2801513671875
      ],
      "type": "VEC3"
    },
    {
      "bufferView": 2,
      "byteOffset": 1440,
      "componentType": 5126,
      "count": 120,
      "max": [
        0.9543731212615967,
        0.5713229775428772,
        0.7820888161659241
      ],
      "min": [
        -0.954372227191925,
        -0.806707501411438,
        -0.8818336725234985
      ],
      "type": "VEC3"
    },
    {
      "bufferView": 1,
      "componentType": 5126,
      "count": 120,
      "max": [
        0.0,
        0.0
      ],
      "min": [
        0.0,
        0.0
      ],
      "type": "VEC2"
    },
    {
      "bufferView": 0,
      "componentType": 5125,
      "count": 180,
      "type": "SCALAR"
    },
    {
      "bufferView": 2,
      "byteOffset": 2880,
      "componentType": 5126,
      "count": 436,
      "max": [
        14.176302909851074,
        3.153743028640747,
        25.728713989257813
      ],
      "min": [
        -14.176302909851074,
        -14.219557762145996,
        19.02176284790039
      ],
      "type": "VEC3"
    },
    {
      "bufferView": 2,
      "byteOffset": 8112,
      "componentType": 5126,
      "count": 436,
      "max": [
        1.0,
        0.9998323321342468,
        0.9998474717140198
      ],
      "min": [
        -1.0,
        -0.9998323321342468,
        -0.999847412109375
      ],
      "type": "VEC3"
    },
    {
      "bufferView": 1,
      "byteOffset": 960,
      "componentType": 5126,
      "count": 436,
      "max": [
        1.0,
        1.0
      ],
      "min": [
        0.0,
        0.0
      ],
      "type": "VEC2"
    },
    {
      "bufferView": 0,
      "byteOffset": 720,
      "componentType": 5125,
      "count": 1500,
      "type": "SCALAR"
    },
    {
      "bufferView": 2,
      "byteOffset": 13344,
      "componentType": 5126,
      "count": 10773,
      "max": [
        16.152053833007813,
        8.371447563171387,
        27.941057205200195
      ],
      "min": [
        9.291189193725586,
        -2.078061103820801,
        12.663371086120605
      ],
      "type": "VEC3"
    },
    {
      "bufferView": 2,
      "byteOffset": 142620,
      "componentType": 5126,
      "count": 10773,
      "max": [
        1.0,
        0.9999995231628418,
        0.999999463558197
      ],
      "min": [
        -0.4087059199810028,
        -0.9999995231628418,
        -0.9999982714653015
      ],
      "type": "VEC3"
    },
    {
      "bufferView": 1,
      "byteOffset": 4448,
      "componentType": 5126,
      "count": 10773,
      "max": [
        1.0,
        1.0
      ],
      "min": [
        0.78125,
        0.0
      ],
      "type": "VEC2"
    },
    {
      "bufferView": 0,
      "byteOffset": 6720,
      "componentType": 5125,
      "count": 57984,
      "type": "SCALAR"
    },
    {
      "bufferView": 2,
      "byteOffset": 271896,
      "componentType": 5126,
      "count": 3146,
      "max": [
        13.511204719543457,
        4.449080944061279,
        27.48708724975586
      ],
      "min": [
        13.117650032043457,
        -1.6240910291671753,
        21.413915634155273
      ],
      "type": "VEC3"
    },
    {
      "bufferView": 2,
      "byteOffset": 309648,
      "componentType": 5126,
      "count": 3146,
      "max": [
        1.0,
        0.9999198913574219,
        0.9999198913574219
      ],
      "min": [
        -0.060418978333473206,
        -0.9999198317527771,
        -0.9999198913574219
      ],
      "type": "VEC3"
    },
    {
      "bufferView": 1,
      "byteOffset": 90632,
      "componentType": 5126,
      "count": 3146,
      "max": [
        1.0,
        1.0
      ],
      "min": [
        0.78125,
        0.0
      ],
      "type": "VEC2"
    },
    {
      "bufferView": 0,
      "byteOffset": 238656,
      "componentType": 5125,
      "count": 18048,
      "type": "SCALAR"
    },
    {
      "bufferView": 2,
      "byteOffset": 347400,
      "componentType": 5126,
      "count": 9957,
      "max": [
        -9.291189193725586,
        8.371447563171387,
        27.941057205200195
      ],
      "min": [
        -16.152053833007813,
        -2.078061103820801,
        12.663371086120605
      ],
      "type": "VEC3"
    },
    {
      "bufferView": 2,
      "byteOffset": 466884,
      "componentType": 5126,
      "count": 9957,
      "max": [
        0.16542842984199524,
        0.9999989867210388,
        0.9999990463256836
      ],
      "min": [
        -1.0,
        -0.9999989867210388,
        -0.9999991655349731
      ],
      "type": "VEC3"
    },
    {
      "bufferView": 1,
      "byteOffset": 115800,
      "componentType": 5126,
      "count": 9957,
      "max": [
        1.0,
        1.0
      ],
      "min": [
        0.78125,
        0.0
      ],
      "type": "VEC2"
    },
    {
      "bufferView": 0,
      "byteOffset": 310848,
      "componentType": 5125,
      "count": 57984,
      "type": "SCALAR"
    },
    {
      "bufferView": 2,
      "byteOffset": 586368,
      "componentType": 5126,
      "count": 3442,
      "max": [
        -13.117650032043457,
        4.449080944061279,
        27.48708724975586
      ],
      "min": [
        -13.511204719543457,
        -1.6240910291671753,
        21.413915634155273
      ],
      "type": "VEC3"
    },
    {
      "bufferView": 2,
      "byteOffset": 627672,
      "componentType": 5126,
      "count": 3442,
      "max": [
        0.4075048267841339,
        0.9999989867210388,
        0.9999990463256836
      ],
      "min": [
        -1.0,
        -0.9999991059303284,
        -0.9999990463256836
      ],
      "type": "VEC3"
    },
    {
      "bufferView": 1,
      "byteOffset": 195456,
      "componentType": 5126,
      "count": 3442,
      "max": [
        1.0,
        1.0
      ],
      "min": [
        0.78125,
        0.0
      ],
      "type": "VEC2"
    },
    {
      "bufferView": 0,
      "byteOffset": 542784,
      "componentType": 5125,
      "count": 18048,
      "type": "SCALAR"
    },
    {
      "bufferView": 2,
      "byteOffset": 668976,
      "componentType": 5126,
      "count": 65532,
      "max": [
        13.326506614685059,
        15.946046829223633,
        36.86037826538086
      ],
      "min": [
        -14.635685920715332,
        -15.438741683959961,
        6.516429901123047
      ],
      "type": "VEC3"
    },
    {
      "bufferView": 2,
      "byteOffset": 1455360,
      "componentType": 5126,
      "count": 65532,
      "max": [
        0.9999601244926453,
        1.0,
        0.9999991059303284
      ],
      "min": [
        -0.9999839663505554,
        -1.0,
        -1.0
      ],
      "type": "VEC3"
    },
    {
      "bufferView": 1,
      "byteOffset": 222992,
      "componentType": 5126,
      "count": 65532,
      "max": [
        1.0,
        1.0
      ],
      "min": [
        0.0,
        0.0
      ],
      "type": "VEC2"
    },
    {
      "bufferView": 0,
      "byteOffset": 614976,
      "componentType": 5125,
      "count": 339804,
      "type": "SCALAR"
    },
    {
      "bufferView": 2,
      "byteOffset": 2241744,
      "componentType": 5126,
      "count": 65532,
      "max": [
        14.519034385681152,
        15.767721176147461,
        39.95329666137695
      ],
      "min": [
        -14.635685920715332,
        -15.451030731201172,
        6.521189212799072
      ],
      "type": "VEC3"
    },
    {
      "bufferView": 2,
      "byteOffset": 3028128,
      "componentType": 5126,
      "count": 65532,
      "max": [
        0.9999760985374451,
        0.9998505115509033,
        0.9999917149543762
      ],
      "min": [
        -0.9999673366546631,
        -0.9999459385871887,
        -1.0
      ],
      "type": "VEC3"
    },
    {
      "bufferView": 1,
      "byteOffset": 747248,
      "componentType": 5126,
      "count": 65532,
      "max": [
        1.0,
        1.0
      ],
      "min": [
        0.0,
        0.0
      ],
      "type": "VEC2"
    },
    {
      "bufferView": 0,
      "byteOffset": 1974192,
      "componentType": 5125,
      "count": 334077,
      "type": "SCALAR"
    },
    {
      "bufferView": 2,
      "byteOffset": 3814512,
      "componentType": 5126,
      "count": 11460,
      "max": [
        14.651455879211426,
        15.643672943115234,
        33.28057098388672
      ],
      "min": [
        -11.08530330657959,
        -15.446870803833008,
        6.516429901123047
      ],
      "type": "VEC3"
    },
    {
      "bufferView": 2,
      "byteOffset": 3952032,
      "componentType": 5126,
      "count": 11460,
      "max": [
        0.9999967217445374,
        0.9879081845283508,
        0.9992371797561646
      ],
      "min": [
        -0.9998872876167297,
        -0.9999459385871887,
        -0.9999026656150818
      ],
      "type": "VEC3"
    },
    {
      "bufferView": 1,
      "byteOffset": 1271504,
      "componentType": 5126,
      "count": 11460,
      "max": [
        1.0,
        1.0
      ],
      "min": [
        0.125,
        0.0
      ],
      "type": "VEC2"
    },
    {
      "bufferView": 0,
      "byteOffset": 3310500,
      "componentType": 5125,
      "count": 53223,
      "type": "SCALAR"
    },
    {
      "bufferView": 2,
      "byteOffset": 4089552,
      "componentType": 5126,
      "count": 6136,
      "max": [
        9.456992149353027,
        -5.774341106414795,
        27.51287841796875
      ],
      "min": [
        2.2307050228118896,
        -11.629361152648926,
        23.980220794677734
      ],
      "type": "VEC3"
    },
    {
      "bufferView": 2,
      "byteOffset": 4163184,
      "componentType": 5126,
      "count": 6136,
      "max": [
        0.9991711378097534,
        0.9779492616653442,
        0.9995492696762085
      ],
      "min": [
        -0.9908562898635864,
        -0.9979420304298401,
        -0.9981861114501953
      ],
      "type": "VEC3"
    },
    {
      "bufferView": 1,
      "byteOffset": 1363184,
      "componentType": 5126,
      "count": 6136,
      "max": [
        1.0,
        1.0
      ],
      "min": [
        1.0,
        1.0
      ],
      "type": "VEC2"
    },
    {
      "bufferView": 0,
      "byteOffset": 3523392,
      "componentType": 5125,
      "count": 32544,
      "type": "SCALAR"
    },
    {
      "bufferView": 2,
      "byteOffset": 4236816,
      "componentType": 5126,
      "count": 6483,
      "max": [
        -2.2307050228118896,
        -5.774342060089111,
        27.51287841796875
      ],
      "min": [
        -9.456992149353027,
        -11.629362106323242,
        23.980220794677734
      ],
      "type": "VEC3"
    },
    {
      "bufferView": 2,
      "byteOffset": 4314612,
      "componentType": 5126,
      "count": 6483,
      "max": [
        0.991446852684021,
        0.9913948774337769,
        0.9994703531265259
      ],
      "min": [
        -0.9992125034332275,
        -0.9984669089317322,
        -0.9989602565765381
      ],
      "type": "VEC3"
    },
    {
      "bufferView": 1,
      "byteOffset": 1412272,
      "componentType": 5126,
      "count": 6483,
      "max": [
        1.0,
        1.0
      ],
      "min": [
        1.0,
        1.0
      ],
      "type": "VEC2"
    },
    {
      "bufferView": 0,
      "byteOffset": 3653568,
      "componentType": 5125,
      "count": 32544,
      "type": "SCALAR"
    },
    {
      "bufferView": 2,
      "byteOffset": 4392408,
      "componentType": 5126,
      "count": 17835,
      "max": [
        2.4468209743499756,
        -9.106847763061523,
        15.805486679077148
      ],
      "min": [
        -2.4468209743499756,
        -14.756452560424805,
        8.037097930908203
      ],
      "type": "VEC3"
    },
    {
      "bufferView": 2,
      "byteOffset": 4606428,
      "componentType": 5126,
      "count": 17835,
      "max": [
        1.0,
        0.9999544024467468,
        0.9999861121177673
      ],
      "min": [
        -1.0,
        -0.9999544024467468,
        -0.9999861717224121
      ],
      "type": "VEC3"
    },
    {
      "bufferView": 1,
      "byteOffset": 1464136,
      "componentType": 5126,
      "count": 17835,
      "max": [
        1.0,
        1.0
      ],
      "min": [
        0.0,
        0.0
      ],
      "type": "VEC2"
    },
    {
      "bufferView": 0,
      "byteOffset": 3783744,
      "componentType": 5125,
      "count": 62208,
      "type": "SCALAR"
    },
    {
      "bufferView": 2,
      "byteOffset": 4820448,
      "componentType": 5126,
      "count": 10091,
      "max": [
        12.193270683288574,
        1.155884027481079,
        29.74671745300293
      ],
      "min": [
        -12.093172073364258,
        -13.143017768859863,
        28.110036849975586
      ],
      "type": "VEC3"
    },
    {
      "bufferView": 2,
      "byteOffset": 4941540,
      "componentType": 5126,
      "count": 10091,
      "max": [
        0.9991133809089661,
        0.9999443888664246,
        0.9999310970306396
      ],
      "min": [
        -0.9992566108703613,
        -0.9982350468635559,
        -1.0
      ],
      "type": "VEC3"
    },
    {
      "bufferView": 1,
      "byteOffset": 1606816,
      "componentType": 5126,
      "count": 10091,
      "max": [
        0.75,
        1.0
      ],
      "min": [
        0.5,
        0.0
      ],
      "type": "VEC2"
    },
    {
      "bufferView": 0,
      "byteOffset": 4032576,
      "componentType": 5125,
      "count": 57600,
      "type": "SCALAR"
    },
    {
      "bufferView": 2,
      "byteOffset": 5062632,
      "componentType": 5126,
      "count": 25859,
      "max": [
        6.852075099945068,
        -8.663148880004883,
        10.600543022155762
      ],
      "min": [
        4.865331172943115,
        -11.597102165222168,
        8.929448127746582
      ],
      "type": "VEC3"
    },
    {
      "bufferView": 2,
      "byteOffset": 5372940,
      "componentType": 5126,
      "count": 25859,
      "max": [
        0.9999255537986755,
        0.9999954700469971,
        1.0
      ],
      "min": [
        -0.9996222257614136,
        -0.9999881386756897,
        -1.0
      ],
      "type": "VEC3"
    },
    {
      "bufferView": 1,
      "byteOffset": 1687544,
      "componentType": 5126,
      "count": 25859,
      "max": [
        0.9375,
        1.0
      ],
      "min": [
        -0.0625,
        0.0
      ],
      "type": "VEC2"
    },
    {
      "bufferView": 0,
      "byteOffset": 4262976,
      "componentType": 5125,
      "count": 144384,
      "type": "SCALAR"
    },
    {
      "bufferView": 2,
      "byteOffset": 5683248,
      "componentType": 5126,
      "count": 27449,
      "max": [
        -4.865331172943115,
        -8.663148880004883,
        10.600543022155762
      ],
      "min": [
        -6.852075099945068,
        -11.597102165222168,
        8.929448127746582
      ],
      "type": "VEC3"
    },
    {
      "bufferView": 2,
      "byteOffset": 6012636,
      "componentType": 5126,
      "count": 27449,
      "max": [
        0.9997795224189758,
        0.9999474883079529,
        1.0
      ],
      "min": [
        -0.9999639391899109,
        -0.9999847412109375,
        -1.0
      ],
      "type": "VEC3"
    },
    {
      "bufferView": 1,
      "byteOffset": 1894416,
      "componentType": 5126,
      "count": 27449,
      "max": [
        0.9375,
        1.0
      ],
      "min": [
        -0.0625,
        0.0
      ],
      "type": "VEC2"
    },
    {
      "bufferView": 0,
      "byteOffset": 4840512,
      "componentType": 5125,
      "count": 144384,
      "type": "SCALAR"
    }
  ],
  "asset": {
    "extras": {
      "author": "Freddan755 (https://sketchfab.com/Freddan755)",
      "license": "CC-BY-4.0 (http://creativecommons.org/licenses/by/4.0/)",
      "source": "https://sketchfab.com/3d-models/star-wars-stormtrooper-helmet-1e906433aecd4fab9c298e6c325a42ac",
      "title": "Star Wars Stormtrooper Helmet"
    },
    "generator": "Sketchfab-12.66.0",
    "version": "2.0"
  },
  "bufferViews": [
    {
      "buffer": 0,
      "byteLength": 5418048,
      "name": "floatBufferViews",
      "target": 34963
    },
    {
      "buffer": 0,
      "byteLength": 2114008,
      "byteOffset": 5418048,
      "byteStride": 8,
      "name": "floatBufferViews",
      "target": 34962
    },
    {
      "buffer": 0,
      "byteLength": 6342024,
      "byteOffset": 7532056,
      "byteStride": 12,
      "name": "floatBufferViews",
      "target": 34962
    }
  ],
  "buffers": [
    {
      "byteLength": 13874080,
      "uri": "scene.bin"
    }
  ],
  "extensionsUsed": [
    "KHR_materials_clearcoat"
  ],
  "images": [
    {
      "uri": "textures/Material__28_baseColor.jpeg"
    },
    {
      "uri": "textures/Material__30_baseColor.jpeg"
    }
  ],
  "materials": [
    {
      "doubleSided": true,
      "extensions": {
        "KHR_materials_clearcoat": {
          "clearcoatFactor": 1.0,
          "clearcoatRoughnessFactor": 0.04
        }
      },
      "name": "Material__27",
      "pbrMetallicRoughness": {
        "metallicFactor": 0.0,
        "roughnessFactor": 0.6
      }
    },
    {
      "doubleSided": true,
      "extensions": {
        "KHR_materials_clearcoat": {
          "clearcoatFactor": 1.0,
          "clearcoatRoughnessFactor": 0.04
        }
      },
      "name": "Material__28",
      "pbrMetallicRoughness": {
        "baseColorTexture": {
          "index": 0
        },
        "metallicFactor": 0.0,
        "roughnessFactor": 0.6
      }
    },
    {
      "doubleSided": true,
      "name": "Material__29",
      "pbrMetallicRoughness": {
        "baseColorTexture": {
          "index": 0
        },
        "metallicFactor": 0.0,
        "roughnessFactor": 0.6
      }
    },
    {
      "doubleSided": true,
      "name": "Material__30",
      "pbrMetallicRoughness": {
        "baseColorTexture": {
          "index": 1
        },
        "metallicFactor": 0.0,
        "roughnessFactor": 0.6
      }
    }
  ],
  "meshes": [
    {
      "name": "Object_0",
      "primitives": [
        {
          "attributes": {
            "NORMAL": 1,
            "POSITION": 0,
            "TEXCOORD_0": 2
          },
          "indices": 3,
          "material": 3,
          "mode": 4
        }
      ]
    },
    {
      "name": "Object_1",
      "primitives": [
        {
          "attributes": {
            "NORMAL": 5,
            "POSITION": 4,
            "TEXCOORD_0": 6
          },
          "indices": 7,
          "material": 3,
          "mode": 4
        }
      ]
    },
    {
      "name": "Object_2",
      "primitives": [
        {
          "attributes": {
            "NORMAL": 9,
            "POSITION": 8,
            "TEXCOORD_0": 10
          },
          "indices": 11,
          "material": 0,
          "mode": 4
        }
      ]
    },
    {
      "name": "Object_3",
      "primitives": [
        {
          "attributes": {
            "NORMAL": 13,
            "POSITION": 12,
            "TEXCOORD_0": 14
          },
          "indices": 15,
          "material": 0,
          "mode": 4
        }
      ]
    },
    {
      "name": "Object_4",
      "primitives": [
        {
          "attributes": {
            "NORMAL": 17,
            "POSITION": 16,
            "TEXCOORD_0": 18
          },
          "indices": 19,
          "material": 0,
          "mode": 4
        }
      ]
    },
    {
      "name": "Object_5",
      "primitives": [
        {
          "attributes": {
            "NORMAL": 21,
            "POSITION": 20,
            "TEXCOORD_0": 22
          },
          "indices": 23,
          "material": 0,
          "mode": 4
        }
      ]
    },
    {
      "name": "Object_6",
      "primitives": [
        {
          "attributes": {
            "NORMAL": 25,
            "POSITION": 24,
            "TEXCOORD_0": 26
          },
          "indices": 27,
          "material": 0,
          "mode": 4
        }
      ]
    },
    {
      "name": "Object_7",
      "primitives": [
        {
          "attributes": {
            "NORMAL": 29,
            "POSITION": 28,
            "TEXCOORD_0": 30
          },
          "indices": 31,
          "material": 0,
          "mode": 4
        }
      ]
    },
    {
      "name": "Object_8",
      "primitives": [
        {
          "attributes": {
            "NORMAL": 33,
            "POSITION": 32,
            "TEXCOORD_0": 34
          },
          "indices": 35,
          "material": 0,
          "mode": 4
        }
      ]
    },
    {
      "name": "Object_9",
      "primitives": [
        {
          "attributes": {
            "NORMAL": 37,
            "POSITION": 36,
            "TEXCOORD_0": 38
          },
          "indices": 39,
          "material": 1,
          "mode": 4
        }
      ]
    },
    {
      "name": "Object_10",
      "primitives": [
        {
          "attributes": {
            "NORMAL": 41,
            "POSITION": 40,
            "TEXCOORD_0": 42
          },
          "indices": 43,
          "material": 1,
          "mode": 4
        }
      ]
    },
    {
      "name": "Object_11",
      "primitives": [
        {
          "attributes": {
            "NORMAL": 45,
            "POSITION": 44,
            "TEXCOORD_0": 46
          },
          "indices": 47,
          "material": 2,
          "mode": 4
        }
      ]
    },
    {
      "name": "Object_12",
      "primitives": [
        {
          "attributes": {
            "NORMAL": 49,
            "POSITION": 48,
            "TEXCOORD_0": 50
          },
          "indices": 51,
          "material": 2,
          "mode": 4
        }
      ]
    },
    {
      "name": "Object_13",
      "primitives": [
        {
          "attributes": {
            "NORMAL": 53,
            "POSITION": 52,
            "TEXCOORD_0": 54
          },
          "indices": 55,
          "material": 2,
          "mode": 4
        }
      ]
    },
    {
      "name": "Object_14",
      "primitives": [
        {
          "attributes": {
            "NORMAL": 57,
            "POSITION": 56,
            "TEXCOORD_0": 58
          },
          "indices": 59,
          "material": 2,
          "mode": 4
        }
      ]
    }
  ],
  "nodes": [
    {
      "children": [
        1
      ],
      "matrix": [
        1.0,
        0.0,
        0.0,
        0.0,
        0.0,
        2.220446049250313e-16,
        -1.0,
        0.0,
        0.0,
        1.0,
        2.220446049250313e-16,
        0.0,
        0.0,
        0.0,
        0.0,
        1.0
      ],
      "name": "Sketchfab_model"
    },
    {
      "children": [
        2,
        3,
        4,
        5,
        6,
        7,
        8,
        9,
        10,
        11,
        12,
        13,
        14,
        15,
        16
      ],
      "name": "export 2.obj.cleaner.materialmerger.gles"
    },
    {
      "mesh": 0,
      "name": "Object_2"
    },
    {
      "mesh": 1,
      "name": "Object_3"
    },
    {
      "mesh": 2,
      "name": "Object_4"
    },
    {
      "mesh": 3,
      "name": "Object_5"
    },
    {
      "mesh": 4,
      "name": "Object_6"
    },
    {
      "mesh": 5,
      "name": "Object_7"
    },
    {
      "mesh": 6,
      "name": "Object_8"
    },
    {
      "mesh": 7,
      "name": "Object_9"
    },
    {
      "mesh": 8,
      "name": "Object_10"
    },
    {
      "mesh": 9,
      "name": "Object_11"
    },
    {
      "mesh": 10,
      "name": "Object_12"
    },
    {
      "mesh": 11,
      "name": "Object_13"
    },
    {
      "mesh": 12,
      "name": "Object_14"
    },
    {
      "mesh": 13,
      "name": "Object_15"
    },
    {
      "mesh": 14,
      "name": "Object_16"
    }
  ],
  "samplers": [
    {
      "magFilter": 9729,
      "minFilter": 9987,
      "wrapS": 10497,
      "wrapT": 10497
    }
  ],
  "scene": 0,
  "scenes": [
    {
      "name": "Sketchfab_Scene",
      "nodes": [
        0
      ]
    }
  ],
  "textures": [
    {
      "sampler": 0,
      "source": 0
    },
    {
      "sampler": 0,
      "source": 1
    }
  ]
}
