{
  "accessors": [
    {
      "bufferView": 2,
      "componentType": 5126,
      "count": 4909,
      "max": [
        3.4554240703582764,
        7.57289457321167,
        4.857605934143066
      ],
      "min": [
        -3.4554240703582764,
        -7.572896480560303,
        0.14994977414608002
      ],
      "type": "VEC3"
    },
    {
      "bufferView": 2,
      "byteOffset": 58908,
      "componentType": 5126,
      "count": 4909,
      "max": [
        1.0,
        1.0,
        1.0
      ],
      "min": [
        -1.0,
        -1.0,
        -1.0
      ],
      "type": "VEC3"
    },
    {
      "bufferView": 1,
      "componentType": 5126,
      "count": 4909,
      "max": [
        0.9993060231208801,
        0.9991210103034973
      ],
      "min": [
        0.0010460000485181808,
        0.0012750029563903809
      ],
      "type": "VEC2"
    },
    {
      "bufferView": 0,
      "componentType": 5125,
      "count": 19872,
      "type": "SCALAR"
    },
    {
      "bufferView": 2,
      "byteOffset": 117816,
      "componentType": 5126,
      "count": 83,
      "max": [
        0.7779715657234192,
        1.3301472663879395,
        0.7071854472160339
      ],
      "min": [
        -0.7779715657234192,
        0.8976178169250488,
        0.2204550951719284
      ],
      "type": "VEC3"
    },
    {
      "bufferView": 2,
      "byteOffset": 118812,
      "componentType": 5126,
      "count": 83,
      "max": [
        0.4823186695575714,
        0.694100558757782,
        0.7207574844360352
      ],
      "min": [
        -0.48231959342956543,
        0.6343494653701782,
        0.5838692784309387
      ],
      "type": "VEC3"
    },
    {
      "bufferView": 1,
      "byteOffset": 39272,
      "componentType": 5126,
      "count": 83,
      "max": [
        0.99853515625,
        0.9972381591796875
      ],
      "min": [
        0.0010042190551757813,
        0.0029296875
      ],
      "type": "VEC2"
    },
    {
      "bufferView": 0,
      "byteOffset": 79488,
      "componentType": 5125,
      "count": 318,
      "type": "SCALAR"
    },
    {
      "bufferView": 2,
      "byteOffset": 119808,
      "componentType": 5126,
      "count": 58,
      "max": [
        2.5810999870300293,
        4.973740577697754,
        4.523083209991455
      ],
      "min": [
        -2.5810999870300293,
        -1.1078957319259644,
        3.2964115142822266
      ],
      "type": "VEC3"
    },
    {
      "bufferView": 2,
      "byteOffset": 120504,
      "componentType": 5126,
      "count": 58,
      "max": [
        0.9590466022491455,
        0.28694045543670654,
        0.9626888036727905
      ],
      "min": [
        -0.9590467810630798,
        -0.004547780845314264,
        0.2637862265110016
      ],
      "type": "VEC3"
    },
    {
      "bufferView": 1,
      "byteOffset": 39936,
      "componentType": 5126,
      "count": 58,
      "max": [
        -0.000577000027988106,
        1.0
      ],
      "min": [
        -1.0005769729614258,
        -1.0020060539245605
      ],
      "type": "VEC2"
    },
    {
      "bufferView": 0,
      "byteOffset": 80760,
      "componentType": 5125,
      "count": 156,
      "type": "SCALAR"
    },
    {
      "bufferView": 2,
      "byteOffset": 121200,
      "componentType": 5126,
      "count": 168,
      "max": [
        2.4671149253845215,
        3.479060411453247,
        4.372443199157715
      ],
      "min": [
        -2.4671149253845215,
        1.6938706636428833,
        3.5180721282958984
      ],
      "type": "VEC3"
    },
    {
      "bufferView": 2,
      "byteOffset": 123216,
      "componentType": 5126,
      "count": 168,
      "max": [
        0.9191097021102905,
        0.3123084306716919,
        0.9016335010528564
      ],
      "min": [
        -0.9191096425056458,
        -0.996879518032074,
        -0.548739492893219
      ],
      "type": "VEC3"
    },
    {
      "bufferView": 1,
      "byteOffset": 40400,
      "componentType": 5126,
      "count": 168,
      "max": [
        1.0,
        1.0
      ],
      "min": [
        0.0,
        0.0
      ],
      "type": "VEC2"
    },
    {
      "bufferView": 0,
      "byteOffset": 81384,
      "componentType": 5125,
      "count": 168,
      "type": "SCALAR"
    },
    {
      "bufferView": 2,
      "byteOffset": 125232,
      "componentType": 5126,
      "count": 4084,
      "max": [
        3.365082025527954,
        5.451351642608643,
        2.812310218811035
      ],
      "min": [
        -3.365082025527954,
        -5.892277240753174,
        -0.11309155076742172
      ],
      "type": "VEC3"
    },
    {
      "bufferView": 2,
      "byteOffset": 174240,
      "componentType": 5126,
      "count": 4084,
      "max": [
        1.0,
        0.9964902997016907,
        1.0
      ],
      "min": [
        -1.0,
        -0.9964900612831116,
        -1.0
      ],
      "type": "VEC3"
    },
    {
      "bufferView": 1,
      "byteOffset": 41744,
      "componentType": 5126,
      "count": 4084,
      "max": [
        2.0,
        0.9942229986190796
      ],
      "min": [
        -1.0,
        0.002375006675720215
      ],
      "type": "VEC2"
    },
    {
      "bufferView": 0,
      "byteOffset": 82056,
      "componentType": 5125,
      "count": 13872,
      "type": "SCALAR"
    }
  ],
  "asset": {
    "extras": {
      "author": "DinseyPixarCarsModels (https://sketchfab.com/DinseyPixarCarsModels)",
      "license": "CC-BY-4.0 (http://creativecommons.org/licenses/by/4.0/)",
      "source": "https://sketchfab.com/3d-models/lightning-mcqueen-xbox-360-e81089406c504b72a6511462a5ea5a7c",
      "title": "Lightning McQueen (Xbox 360)"
    },
    "generator": "Sketchfab-0.13.0",
    "version": "2.0"
  },
  "bufferViews": [
    {
      "buffer": 0,
      "byteLength": 137544,
      "name": "floatBufferViews",
      "target": 34963
    },
    {
      "buffer": 0,
      "byteLength": 74416,
      "byteOffset": 137544,
      "byteStride": 8,
      "name": "floatBufferViews",
      "target": 34962
    },
    {
      "buffer": 0,
      "byteLength": 223248,
      "byteOffset": 211960,
      "byteStride": 12,
      "name": "floatBufferViews",
      "target": 34962
    }
  ],
  "buffers": [
    {
      "byteLength": 435208,
      "uri": "scene.bin"
    }
  ],
  "images": [
    {
      "uri": "textures/Material.027_baseColor.jpeg"
    },
    {
      "uri": "textures/Material.027_metallicRoughness.png"
    },
    {
      "uri": "textures/Material.028_baseColor.jpeg"
    },
    {
      "uri": "textures/Material.028_metallicRoughness.png"
    },
    {
      "uri": "textures/Material.031_baseColor.png"
    },
    {
      "uri": "textures/Material.030_baseColor.png"
    },
    {
      "uri": "textures/Material.030_metallicRoughness.png"
    }
  ],
  "materials": [
    {
      "doubleSided": true,
      "name": "Material.027",
      "pbrMetallicRoughness": {
        "baseColorTexture": {
          "index": 0
        },
        "metallicFactor": 0.3,
        "metallicRoughnessTexture": {
          "index": 1
        }
      }
    },
    {
      "doubleSided": true,
      "name": "Material.028",
      "pbrMetallicRoughness": {
        "baseColorTexture": {
          "index": 2
        },
        "metallicFactor": 0.3,
        "metallicRoughnessTexture": {
          "index": 3
        }
      }
    },
    {
      "alphaMode": "BLEND",
      "doubleSided": true,
      "name": "Material.029",
      "pbrMetallicRoughness": {
        "baseColorFactor": [
          0.3154568193938017,
          0.3154568193938017,
          0.3154568193938017,
          0.5
        ],
        "metallicFactor": 0.0,
        "roughnessFactor": 0.0
      }
    },
    {
      "doubleSided": true,
      "name": "Material.031",
      "pbrMetallicRoughness": {
        "baseColorFactor": [
          0.38857261279272465,
          0.38857261279272465,
          0.38857261279272465,
          1.0
        ],
        "baseColorTexture": {
          "index": 4
        },
        "metallicFactor": 0.5470492862454438,
        "roughnessFactor": 0.4102839170557473
      }
    },
    {
      "alphaMode": "BLEND",
      "doubleSided": true,
      "name": "Material.030",
      "pbrMetallicRoughness": {
        "baseColorTexture": {
          "index": 5
        },
        "metallicFactor": 0.5,
        "metallicRoughnessTexture": {
          "index": 6
        }
      }
    }
  ],
  "meshes": [
    {
      "name": "Body_Material.027_0",
      "primitives": [
        {
          "attributes": {
            "NORMAL": 1,
            "POSITION": 0,
            "TEXCOORD_0": 2
          },
          "indices": 3,
          "material": 0,
          "mode": 4
        }
      ]
    },
    {
      "name": "Eyes_Material.028_0",
      "primitives": [
        {
          "attributes": {
            "NORMAL": 5,
            "POSITION": 4,
            "TEXCOORD_0": 6
          },
          "indices": 7,
          "material": 1,
          "mode": 4
        }
      ]
    },
    {
      "name": "Glass_Material.029_0",
      "primitives": [
        {
          "attributes": {
            "NORMAL": 9,
            "POSITION": 8,
            "TEXCOORD_0": 10
          },
          "indices": 11,
          "material": 2,
          "mode": 4
        }
      ]
    },
    {
      "name": "MCQ X360_Material.031_0",
      "primitives": [
        {
          "attributes": {
            "NORMAL": 13,
            "POSITION": 12,
            "TEXCOORD_0": 14
          },
          "indices": 15,
          "material": 3,
          "mode": 4
        }
      ]
    },
    {
      "name": "Tires_Material.030_0",
      "primitives": [
        {
          "attributes": {
            "NORMAL": 17,
            "POSITION": 16,
            "TEXCOORD_0": 18
          },
          "indices": 19,
          "material": 4,
          "mode": 4
        }
      ]
    }
  ],
  "nodes": [
    {
      "children": [
        1
      ],
      "matrix": [
        1.0,
        0.0,
        0.0,
        0.0,
        0.0,
        2.220446049250313e-16,
        -1.0,
        0.0,
        0.0,
        1.0,
        2.220446049250313e-16,
        0.0,
        0.0,
        0.0,
        0.0,
        1.0
      ],
      "name": "Sketchfab_model"
    },
    {
      "children": [
        2
      ],
      "matrix": [
        0.009999999776482582,
        0.0,
        0.0,
        0.0,
        0.0,
        0.0,
        0.009999999776482582,
        0.0,
        0.0,
        -0.009999999776482582,
        0.0,
        0.0,
        0.0,
        0.0,
        0.0,
        1.0
      ],
      "name": "d0bc97bd12cf429481af81bea7cf2329.fbx"
    },
    {
      "children": [
        3,
        5,
        7,
        9,
        11
      ],
      "name": "RootNode"
    },
    {
      "children": [
        4
      ],
      "matrix": [
        100.0,
        0.0,
        0.0,
        0.0,
        0.0,
        -2.8212996916465727e-05,
        -99.99999999999602,
        0.0,
        0.0,
        99.99999999999602,
        -2.8212996916465727e-05,
        0.0,
        0.0,
        0.0,
        0.0,
        1.0
      ],
      "name": "Body"
    },
    {
      "mesh": 0,
      "name": "Body_Material.027_0"
    },
    {
      "children": [
        6
      ],
      "matrix": [
        307.77947998046875,
        0.0,
        0.0,
        0.0,
        0.0,
        308.903869628894,
        8.715104085941597e-05,
        0.0,
        0.0,
        -8.715104085941597e-05,
        308.903869628894,
        0.0,
        0.0,
        43.62139892578125,
        0.0,
        1.0
      ],
      "name": "Eyes"
    },
    {
      "mesh": 1,
      "name": "Eyes_Material.028_0"
    },
    {
      "children": [
        8
      ],
      "matrix": [
        100.0,
        0.0,
        0.0,
        0.0,
        0.0,
        -2.8212996916465727e-05,
        -99.99999999999602,
        0.0,
        0.0,
        99.99999999999602,
        -2.8212996916465727e-05,
        0.0,
        0.0,
        0.0,
        0.0,
        1.0
      ],
      "name": "Glass"
    },
    {
      "mesh": 2,
      "name": "Glass_Material.029_0"
    },
    {
      "children": [
        10
      ],
      "matrix": [
        100.0,
        0.0,
        0.0,
        0.0,
        0.0,
        -1.629206793918314e-05,
        -99.99999999999868,
        0.0,
        0.0,
        99.99999999999868,
        -1.629206793918314e-05,
        0.0,
        0.0,
        0.0,
        0.0,
        1.0
      ],
      "name": "MCQ X360"
    },
    {
      "mesh": 3,
      "name": "MCQ X360_Material.031_0"
    },
    {
      "children": [
        12
      ],
      "matrix": [
        100.0,
        0.0,
        0.0,
        0.0,
        0.0,
        -2.8212996916465727e-05,
        -99.99999999999602,
        0.0,
        0.0,
        99.99999999999602,
        -2.8212996916465727e-05,
        0.0,
        0.0,
        0.0,
        0.0,
        1.0
      ],
      "name": "Tires"
    },
    {
      "mesh": 4,
      "name": "Tires_Material.030_0"
    }
  ],
  "samplers": [
    {
      "magFilter": 9729,
      "minFilter": 9987,
      "wrapS": 10497,
      "wrapT": 10497
    }
  ],
  "scene": 0,
  "scenes": [
    {
      "name": "Sketchfab_Scene",
      "nodes": [
        0
      ]
    }
  ],
  "textures": [
    {
      "sampler": 0,
      "source": 0
    },
    {
      "sampler": 0,
      "source": 1
    },
    {
      "sampler": 0,
      "source": 2
    },
    {
      "sampler": 0,
      "source": 3
    },
    {
      "sampler": 0,
      "source": 4
    },
    {
      "sampler": 0,
      "source": 5
    },
    {
      "sampler": 0,
      "source": 6
    }
  ]
}
