{
  "accessors": [
    {
      "bufferView": 2,
      "componentType": 5126,
      "count": 2327,
      "max": [
        1.409237027168274,
        0.36810800433158875,
        2.3259499073028564
      ],
      "min": [
        -0.8175190091133118,
        -2.085592031478882,
        0.2383739948272705
      ],
      "type": "VEC3"
    },
    {
      "bufferView": 2,
      "byteOffset": 27924,
      "componentType": 5126,
      "count": 2327,
      "max": [
        0.9999500513076782,
        0.9995319247245789,
        0.9999889135360718
      ],
      "min": [
        -0.9997197389602661,
        -0.9999693632125854,
        -0.9999914765357971
      ],
      "type": "VEC3"
    },
    {
      "bufferView": 1,
      "componentType": 5126,
      "count": 2327,
      "max": [
        0.8782910108566284,
        1.028130054473877
      ],
      "min": [
        -0.9994099736213684,
        -4.999999873689376e-05
      ],
      "type": "VEC2"
    },
    {
      "bufferView": 0,
      "componentType": 5125,
      "count": 6819,
      "type": "SCALAR"
    },
    {
      "bufferView": 2,
      "byteOffset": 55848,
      "componentType": 5126,
      "count": 2207,
      "max": [
        1.3433359861373901,
        2.479907989501953,
        2.320019006729126
      ],
      "min": [
        -1.0298839807510376,
        -1.9475760459899902,
        0.2383739948272705
      ],
      "type": "VEC3"
    },
    {
      "bufferView": 2,
      "byteOffset": 82332,
      "componentType": 5126,
      "count": 2207,
      "max": [
        0.9998001456260681,
        0.9998781681060791,
        0.9999991655349731
      ],
      "min": [
        -0.999396800994873,
        -0.9992891550064087,
        -0.9999961853027344
      ],
      "type": "VEC3"
    },
    {
      "bufferView": 1,
      "byteOffset": 18616,
      "componentType": 5126,
      "count": 2207,
      "max": [
        1.9691100120544434,
        0.9984650015830994
      ],
      "min": [
        -1.9955400228500366,
        0.0008740000193938613
      ],
      "type": "VEC2"
    },
    {
      "bufferView": 0,
      "byteOffset": 27276,
      "componentType": 5125,
      "count": 5139,
      "type": "SCALAR"
    },
    {
      "bufferView": 2,
      "byteOffset": 108816,
      "componentType": 5126,
      "count": 4396,
      "max": [
        0.9571459889411926,
        2.8480589389801025,
        2.2821199893951416
      ],
      "min": [
        -0.9643020033836365,
        -1.8248670101165771,
        0.1953440010547638
      ],
      "type": "VEC3"
    },
    {
      "bufferView": 2,
      "byteOffset": 161568,
      "componentType": 5126,
      "count": 4396,
      "max": [
        0.9997917413711548,
        0.9998787045478821,
        0.9999992847442627
      ],
      "min": [
        -0.9999523162841797,
        -0.9999442100524902,
        -0.9999994039535522
      ],
      "type": "VEC3"
    },
    {
      "bufferView": 1,
      "byteOffset": 36272,
      "componentType": 5126,
      "count": 4396,
      "max": [
        1.9925899505615234,
        0.9936050176620483
      ],
      "min": [
        1.0070799589157104,
        7.000000096013537e-06
      ],
      "type": "VEC2"
    },
    {
      "bufferView": 0,
      "byteOffset": 47832,
      "componentType": 5125,
      "count": 9852,
      "type": "SCALAR"
    },
    {
      "bufferView": 2,
      "byteOffset": 214320,
      "componentType": 5126,
      "count": 46,
      "max": [
        0.531141996383667,
        -0.8081610202789307,
        1.8173350095748901
      ],
      "min": [
        -0.013725999742746353,
        -0.8734719753265381,
        1.604161024093628
      ],
      "type": "VEC3"
    },
    {
      "bufferView": 2,
      "byteOffset": 214872,
      "componentType": 5126,
      "count": 46,
      "max": [
        0.20930920541286469,
        0.9809728860855103,
        -0.15389502048492432
      ],
      "min": [
        -0.11849908530712128,
        0.3567868769168854,
        -0.9309658408164978
      ],
      "type": "VEC3"
    },
    {
      "bufferView": 1,
      "byteOffset": 71440,
      "componentType": 5126,
      "count": 46,
      "max": [
        0.9907159805297852,
        -0.01042299997061491
      ],
      "min": [
        0.011060000397264957,
        -0.9888030290603638
      ],
      "type": "VEC2"
    },
    {
      "bufferView": 0,
      "byteOffset": 87240,
      "componentType": 5125,
      "count": 84,
      "type": "SCALAR"
    },
    {
      "bufferView": 2,
      "byteOffset": 215424,
      "componentType": 5126,
      "count": 1199,
      "max": [
        1.0849330425262451,
        1.9033139944076538,
        0.8499069809913635
      ],
      "min": [
        -1.02748703956604,
        -1.7025940418243408,
        -0.02399500086903572
      ],
      "type": "VEC3"
    },
    {
      "bufferView": 2,
      "byteOffset": 229812,
      "componentType": 5126,
      "count": 1199,
      "max": [
        0.999795138835907,
        0.9979178309440613,
        0.9998194575309753
      ],
      "min": [
        -0.9995052218437195,
        -0.9979178309440613,
        -0.9973478317260742
      ],
      "type": "VEC3"
    },
    {
      "bufferView": 1,
      "byteOffset": 71808,
      "componentType": 5126,
      "count": 1199,
      "max": [
        0.9975379705429077,
        0.9990929961204529
      ],
      "min": [
        0.006988000124692917,
        0.005671999882906675
      ],
      "type": "VEC2"
    },
    {
      "bufferView": 0,
      "byteOffset": 87576,
      "componentType": 5125,
      "count": 3072,
      "type": "SCALAR"
    },
    {
      "bufferView": 2,
      "byteOffset": 244200,
      "componentType": 5126,
      "count": 26,
      "max": [
        1.1976120471954346,
        0.17998799681663513,
        1.2415109872817993
      ],
      "min": [
        -0.7219240069389343,
        -0.8434659838676453,
        0.5951610207557678
      ],
      "type": "VEC3"
    },
    {
      "bufferView": 2,
      "byteOffset": 244512,
      "componentType": 5126,
      "count": 26,
      "max": [
        0.9977536201477051,
        0.07979708164930344,
        0.31379327178001404
      ],
      "min": [
        -0.9986262917518616,
        -0.13289865851402283,
        -0.9722144603729248
      ],
      "type": "VEC3"
    },
    {
      "bufferView": 1,
      "byteOffset": 81400,
      "componentType": 5126,
      "count": 26,
      "max": [
        0.945356011390686,
        0.8977069854736328
      ],
      "min": [
        0.06743200123310089,
        0.05343899875879288
      ],
      "type": "VEC2"
    },
    {
      "bufferView": 0,
      "byteOffset": 99864,
      "componentType": 5125,
      "count": 42,
      "type": "SCALAR"
    },
    {
      "bufferView": 2,
      "byteOffset": 244824,
      "componentType": 5126,
      "count": 407,
      "max": [
        1.0076839923858643,
        -1.7210769653320313,
        1.337231993675232
      ],
      "min": [
        -0.7860180139541626,
        -2.087270975112915,
        0.21138699352741241
      ],
      "type": "VEC3"
    },
    {
      "bufferView": 2,
      "byteOffset": 249708,
      "componentType": 5126,
      "count": 407,
      "max": [
        0.9862502813339233,
        0.996478259563446,
        0.999447762966156
      ],
      "min": [
        -0.8850966691970825,
        -0.9992595314979553,
        -0.999854326248169
      ],
      "type": "VEC3"
    },
    {
      "bufferView": 1,
      "byteOffset": 81608,
      "componentType": 5126,
      "count": 407,
      "max": [
        -0.011536999605596066,
        1.7558799982070923
      ],
      "min": [
        -0.9899500012397766,
        1.0101399421691895
      ],
      "type": "VEC2"
    },
    {
      "bufferView": 0,
      "byteOffset": 100032,
      "componentType": 5125,
      "count": 1470,
      "type": "SCALAR"
    }
  ],
  "asset": {
    "extras": {
      "author": "Sajin Mickey Firey fan 1342 from Cheryl hill (https://sketchfab.com/cherylhill28)",
      "license": "CC-BY-4.0 (http://creativecommons.org/licenses/by/4.0/)",
      "source": "https://sketchfab.com/3d-models/wii-mater-tall-tales-tow-mater-39d89abefd774a3da61bf4f134711d9a",
      "title": "Wii - Mater Tall Tales Tow Mater"
    },
    "generator": "Sketchfab-16.21.0",
    "version": "2.0"
  },
  "bufferViews": [
    {
      "buffer": 0,
      "byteLength": 105912,
      "name": "floatBufferViews",
      "target": 34963
    },
    {
      "buffer": 0,
      "byteLength": 84864,
      "byteOffset": 105912,
      "byteStride": 8,
      "name": "floatBufferViews",
      "target": 34962
    },
    {
      "buffer": 0,
      "byteLength": 254592,
      "byteOffset": 190776,
      "byteStride": 12,
      "name": "floatBufferViews",
      "target": 34962
    }
  ],
  "buffers": [
    {
      "byteLength": 445368,
      "uri": "scene.bin"
    }
  ],
  "extensionsUsed": [
    "KHR_materials_unlit"
  ],
  "images": [
    {
      "uri": "textures/Material_2_baseColor.png"
    },
    {
      "uri": "textures/Material_3_baseColor.png"
    },
    {
      "uri": "textures/Material_4_baseColor.png"
    },
    {
      "uri": "textures/Material_5_baseColor.png"
    },
    {
      "uri": "textures/Material_6_baseColor.png"
    },
    {
      "uri": "textures/Material_7_baseColor.png"
    },
    {
      "uri": "textures/Material_8_baseColor.png"
    }
  ],
  "materials": [
    {
      "doubleSided": true,
      "extensions": {
        "KHR_materials_unlit": {}
      },
      "name": "Material_2",
      "pbrMetallicRoughness": {
        "baseColorTexture": {
          "index": 0
        },
        "metallicFactor": 0.0
      }
    },
    {
      "doubleSided": true,
      "extensions": {
        "KHR_materials_unlit": {}
      },
      "name": "Material_3",
      "pbrMetallicRoughness": {
        "baseColorTexture": {
          "index": 1
        },
        "metallicFactor": 0.0
      }
    },
    {
      "doubleSided": true,
      "extensions": {
        "KHR_materials_unlit": {}
      },
      "name": "Material_4",
      "pbrMetallicRoughness": {
        "baseColorTexture": {
          "index": 2
        },
        "metallicFactor": 0.0
      }
    },
    {
      "doubleSided": true,
      "extensions": {
        "KHR_materials_unlit": {}
      },
      "name": "Material_5",
      "pbrMetallicRoughness": {
        "baseColorTexture": {
          "index": 3
        },
        "metallicFactor": 0.0
      }
    },
    {
      "doubleSided": true,
      "extensions": {
        "KHR_materials_unlit": {}
      },
      "name": "Material_6",
      "pbrMetallicRoughness": {
        "baseColorTexture": {
          "index": 4
        },
        "metallicFactor": 0.0
      }
    },
    {
      "alphaMode": "BLEND",
      "doubleSided": true,
      "extensions": {
        "KHR_materials_unlit": {}
      },
      "name": "Material_7",
      "pbrMetallicRoughness": {
        "baseColorTexture": {
          "index": 5
        },
        "metallicFactor": 0.0
      }
    },
    {
      "doubleSided": true,
      "extensions": {
        "KHR_materials_unlit": {}
      },
      "name": "Material_8",
      "pbrMetallicRoughness": {
        "baseColorTexture": {
          "index": 6
        },
        "metallicFactor": 0.0
      }
    }
  ],
  "meshes": [
    {
      "name": "Object_0",
      "primitives": [
        {
          "attributes": {
            "NORMAL": 1,
            "POSITION": 0,
            "TEXCOORD_0": 2
          },
          "indices": 3,
          "material": 0,
          "mode": 4
        }
      ]
    },
    {
      "name": "Object_1",
      "primitives": [
        {
          "attributes": {
            "NORMAL": 5,
            "POSITION": 4,
            "TEXCOORD_0": 6
          },
          "indices": 7,
          "material": 1,
          "mode": 4
        }
      ]
    },
    {
      "name": "Object_2",
      "primitives": [
        {
          "attributes": {
            "NORMAL": 9,
            "POSITION": 8,
            "TEXCOORD_0": 10
          },
          "indices": 11,
          "material": 2,
          "mode": 4
        }
      ]
    },
    {
      "name": "Object_3",
      "primitives": [
        {
          "attributes": {
            "NORMAL": 13,
            "POSITION": 12,
            "TEXCOORD_0": 14
          },
          "indices": 15,
          "material": 3,
          "mode": 4
        }
      ]
    },
    {
      "name": "Object_4",
      "primitives": [
        {
          "attributes": {
            "NORMAL": 17,
            "POSITION": 16,
            "TEXCOORD_0": 18
          },
          "indices": 19,
          "material": 4,
          "mode": 4
        }
      ]
    },
    {
      "name": "Object_5",
      "primitives": [
        {
          "attributes": {
            "NORMAL": 21,
            "POSITION": 20,
            "TEXCOORD_0": 22
          },
          "indices": 23,
          "material": 5,
          "mode": 4
        }
      ]
    },
    {
      "name": "Object_6",
      "primitives": [
        {
          "attributes": {
            "NORMAL": 25,
            "POSITION": 24,
            "TEXCOORD_0": 26
          },
          "indices": 27,
          "material": 6,
          "mode": 4
        }
      ]
    }
  ],
  "nodes": [
    {
      "children": [
        1
      ],
      "matrix": [
        1.0,
        0.0,
        0.0,
        0.0,
        0.0,
        2.220446049250313e-16,
        -1.0,
        0.0,
        0.0,
        1.0,
        2.220446049250313e-16,
        0.0,
        0.0,
        0.0,
        0.0,
        1.0
      ],
      "name": "Sketchfab_model"
    },
    {
      "children": [
        2,
        3,
        4,
        5,
        6,
        7,
        8
      ],
      "name": "Mater.obj.cleaner.materialmerger.gles"
    },
    {
      "mesh": 0,
      "name": "Object_2"
    },
    {
      "mesh": 1,
      "name": "Object_3"
    },
    {
      "mesh": 2,
      "name": "Object_4"
    },
    {
      "mesh": 3,
      "name": "Object_5"
    },
    {
      "mesh": 4,
      "name": "Object_6"
    },
    {
      "mesh": 5,
      "name": "Object_7"
    },
    {
      "mesh": 6,
      "name": "Object_8"
    }
  ],
  "samplers": [
    {
      "magFilter": 9729,
      "minFilter": 9987,
      "wrapS": 10497,
      "wrapT": 10497
    }
  ],
  "scene": 0,
  "scenes": [
    {
      "name": "Sketchfab_Scene",
      "nodes": [
        0
      ]
    }
  ],
  "textures": [
    {
      "sampler": 0,
      "source": 0
    },
    {
      "sampler": 0,
      "source": 1
    },
    {
      "sampler": 0,
      "source": 2
    },
    {
      "sampler": 0,
      "source": 3
    },
    {
      "sampler": 0,
      "source": 4
    },
    {
      "sampler": 0,
      "source": 5
    },
    {
      "sampler": 0,
      "source": 6
    }
  ]
}
